# File created by Blade
# Date/Time:  Wed Jan 21 16:33:30 2015
# Frame Rate: 120.000 fps
#------------------------------------------------------
:FULLY-SPECIFIED
:DEGREES
625
root 28.318159 21.898625 -24.421458 -134.335249 93.453882 -52.112084
Spine -43.116853 -1.944214 2.081423
Head -12.545540 2.098799 -1.283749
LeftShoulder -9.824144 -56.355600 40.703597
LeftArm 28.072889 -54.006985 -8.416555
LeftForeArm 0.164199 -0.000000 57.935311
LeftHand 3.165963 0.000000 101.170132
LeftHandThumb1 -26.253704 0.000000 33.147579
RightShoulder -6.745593 17.217850 -32.762045
RightArm 119.626923 83.064676 110.847012
RightForeArm -43.639621 -0.000000 64.639473
RightHand 0.062178 -0.000000 -91.303243
RightHandThumb1 -24.326973 -0.000000 -32.862282
LeftUpLeg 12.353133 2.171381 9.470283
LeftLeg 97.580641 -0.000000 -0.000000
LeftFoot -46.987705 27.634257 -17.382653
LeftToeBase 23.470084 -0.000000 -0.000000
RightUpLeg 10.570931 7.624928 -7.664898
RightLeg 99.806946 -0.000000 -0.000000
RightFoot -48.090396 -32.952455 23.274128
RightToeBase 23.760445 -0.000000 -0.000000
626
root 28.332320 22.072928 -24.431801 -132.322025 93.360998 -50.753345
Spine -43.526716 -1.970169 2.101126
Head -15.101776 1.816346 -1.166231
LeftShoulder -9.978913 -56.789087 41.096146
LeftArm 28.226605 -54.108139 -7.132794
LeftForeArm -0.873368 -0.000000 55.274776
LeftHand 2.743136 0.000000 101.288514
LeftHandThumb1 -26.253704 0.000000 33.147579
RightShoulder -7.120504 17.730611 -33.219027
RightArm 120.670578 83.584634 110.980362
RightForeArm -42.816499 0.000000 62.241275
RightHand 0.107783 -0.000000 -91.935399
RightHandThumb1 -24.326973 -0.000000 -32.862282
LeftUpLeg 12.205202 2.191747 9.459435
LeftLeg 96.943672 -0.000000 -0.000000
LeftFoot -46.881281 27.546816 -17.438547
LeftToeBase 23.481771 -0.000000 -0.000000
RightUpLeg 10.490665 7.389442 -7.762749
RightLeg 99.099940 -0.000000 -0.000000
RightFoot -47.959353 -32.841373 23.277588
RightToeBase 23.715775 -0.000000 -0.000000
627
root 28.344770 22.245808 -24.441214 -130.666057 93.273073 -49.713718
Spine -43.915968 -2.038233 2.164362
Head -17.619267 1.588317 -0.980360
LeftShoulder -10.325228 -57.251880 41.689818
LeftArm 28.514109 -54.126664 -6.054631
LeftForeArm -1.955624 -0.000000 52.607266
LeftHand 2.753066 -0.000000 101.387379
LeftHandThumb1 -26.253704 0.000000 33.147579
RightShoulder -7.455622 17.949749 -33.632916
RightArm 124.349024 83.882629 113.772679
RightForeArm -42.078671 -0.000000 59.769084
RightHand 0.390788 -0.000000 -92.594369
RightHandThumb1 -24.326973 -0.000000 -32.862282
LeftUpLeg 12.104470 2.229914 9.493706
LeftLeg 96.288921 -0.000000 -0.000000
LeftFoot -46.767190 27.467194 -17.436831
LeftToeBase 23.512756 -0.000000 -0.000000
RightUpLeg 10.439057 7.168945 -7.831931
RightLeg 98.399300 -0.000000 -0.000000
RightFoot -47.842222 -32.770215 23.347852
RightToeBase 23.488312 -0.000000 -0.000000
628
root 28.351191 22.415571 -24.455891 -128.297484 93.226224 -48.007708
Spine -44.385871 -2.084113 2.147545
Head -20.027268 1.279898 -0.781762
LeftShoulder -10.703650 -57.749776 42.401827
LeftArm 28.678664 -54.038508 -4.994303
LeftForeArm -3.077940 0.000000 49.979745
LeftHand 2.667186 0.000000 101.359348
LeftHandThumb1 -26.253704 0.000000 33.147579
RightShoulder -7.745912 18.147930 -34.025168
RightArm 128.365962 84.243658 116.872615
RightForeArm -41.244703 -0.000000 57.275442
RightHand 0.328266 -0.000000 -93.464899
RightHandThumb1 -24.326973 -0.000000 -32.862282
LeftUpLeg 11.915860 2.274742 9.438631
LeftLeg 95.644974 -0.000000 -0.000000
LeftFoot -46.610051 27.374657 -17.534797
LeftToeBase 23.468696 -0.000000 -0.000000
RightUpLeg 10.327231 6.948882 -7.990128
RightLeg 97.696082 -0.000000 -0.000000
RightFoot -47.712210 -32.652859 23.310918
RightToeBase 23.464542 -0.000000 -0.000000
629
root 28.356253 22.585128 -24.471519 -126.815495 93.156646 -47.153935
Spine -44.864495 -2.096443 2.200684
Head -22.397883 1.212936 -0.563935
LeftShoulder -10.927712 -58.244337 42.955923
LeftArm 28.831126 -53.896274 -3.855538
LeftForeArm -4.050046 0.000000 47.330569
LeftHand 2.366516 -0.000000 101.086317
LeftHandThumb1 -26.253704 0.000000 33.147579
RightShoulder -7.842594 18.861057 -34.437808
RightArm 127.311008 85.158292 114.785850
RightForeArm -40.164581 -0.000000 54.652231
RightHand 0.429634 0.000000 -93.991488
RightHandThumb1 -24.326973 -0.000000 -32.862282
LeftUpLeg 11.781523 2.335678 9.445792
LeftLeg 94.983202 -0.000000 -0.000000
LeftFoot -46.455347 27.333946 -17.576864
LeftToeBase 23.508583 -0.000000 -0.000000
RightUpLeg 10.222685 6.748646 -8.122602
RightLeg 96.975726 -0.000000 -0.000000
RightFoot -47.495148 -32.567345 23.163826
RightToeBase 23.591617 -0.000000 -0.000000
630
root 28.355510 22.753054 -24.491170 -125.129367 93.130354 -46.082992
Spine -45.335353 -2.105572 2.210784
Head -24.720968 1.225919 -0.321484
LeftShoulder -11.456392 -58.862802 43.807621
LeftArm 29.098593 -53.537410 -2.981670
LeftForeArm -5.105342 0.000000 44.757813
LeftHand 2.108452 -0.000000 100.752527
LeftHandThumb1 -26.253704 0.000000 33.147579
RightShoulder -7.721079 20.105316 -34.760495
RightArm 118.118432 86.603296 104.278869
RightForeArm -38.844886 -0.000000 51.783354
RightHand 0.521137 -0.000000 -94.997147
RightHandThumb1 -24.326973 -0.000000 -32.862282
LeftUpLeg 11.643433 2.439517 9.415477
LeftLeg 94.309933 -0.000000 -0.000000
LeftFoot -46.239201 27.272461 -17.574954
LeftToeBase 23.404594 -0.000000 -0.000000
RightUpLeg 10.121953 6.558657 -8.315250
RightLeg 96.264096 -0.000000 -0.000000
RightFoot -47.304441 -32.373992 23.177057
RightToeBase 23.375910 -0.000000 -0.000000
631
root 28.356140 22.919513 -24.504677 -123.796709 93.036403 -45.267235
Spine -45.712357 -2.159352 2.295032
Head -26.959971 1.257583 -0.042564
LeftShoulder -11.934349 -59.330642 44.542740
LeftArm 29.420867 -53.212350 -2.060815
LeftForeArm -6.240909 0.000000 42.178973
LeftHand 1.929320 -0.000000 100.423939
LeftHandThumb1 -26.253704 0.000000 33.147579
RightShoulder -7.688546 20.615621 -35.042773
RightArm 112.616152 87.596457 97.597015
RightForeArm -37.624192 -0.000000 49.028747
RightHand 0.417067 -0.000000 -95.782865
RightHandThumb1 -24.326973 -0.000000 -32.862282
LeftUpLeg 11.594539 2.491004 9.480175
LeftLeg 93.653845 -0.000000 -0.000000
LeftFoot -46.113939 27.157121 -17.626246
LeftToeBase 23.657289 -0.000000 -0.000000
RightUpLeg 10.122793 6.345571 -8.409339
RightLeg 95.548536 -0.000000 -0.000000
RightFoot -47.127388 -32.258390 23.172866
RightToeBase 23.304840 -0.000000 -0.000000
632
root 28.357413 23.085174 -24.521465 -122.366426 92.960300 -44.332958
Spine -46.155363 -2.171030 2.357378
Head -28.989630 1.279257 0.159081
LeftShoulder -12.089899 -59.696944 45.019415
LeftArm 29.522519 -52.864024 -0.935269
LeftForeArm -7.474391 -0.000000 39.684219
LeftHand 1.752037 -0.000000 99.767634
LeftHandThumb1 -26.253704 0.000000 33.147579
RightShoulder -7.482233 21.408213 -35.318446
RightArm 81.377895 88.567954 65.079488
RightForeArm -36.375703 0.000000 46.240581
RightHand 0.262093 -0.000000 -96.638433
RightHandThumb1 -24.326973 -0.000000 -32.862282
LeftUpLeg 11.555817 2.562199 9.536558
LeftLeg 93.007335 -0.000000 -0.000000
LeftFoot -45.910126 27.041209 -17.685315
LeftToeBase 23.644171 -0.000000 -0.000000
RightUpLeg 10.134955 6.136656 -8.546406
RightLeg 94.836630 -0.000000 -0.000000
RightFoot -46.953028 -32.126823 23.137656
RightToeBase 23.294863 -0.000000 -0.000000
633
root 28.354579 23.250688 -24.536603 -121.655144 92.877028 -44.064769
Spine -46.506220 -2.158221 2.457635
Head -31.096572 1.293469 0.334424
LeftShoulder -12.714193 -60.091419 45.867048
LeftArm 29.748219 -52.344887 -0.032222
LeftForeArm -8.596647 0.000000 37.122129
LeftHand 1.587972 -0.000000 99.354705
LeftHandThumb1 -26.253704 0.000000 33.147579
RightShoulder -7.475401 21.953961 -35.615777
RightArm 37.637672 88.680557 20.105972
RightForeArm -35.167134 -0.000000 43.416423
RightHand 0.411299 0.000000 -97.327702
RightHandThumb1 -24.326973 -0.000000 -32.862282
LeftUpLeg 11.576438 2.657681 9.633815
LeftLeg 92.354975 -0.000000 -0.000000
LeftFoot -45.685213 26.876159 -17.800706
LeftToeBase 23.615232 -0.000000 -0.000000
RightUpLeg 10.176189 5.934090 -8.652066
RightLeg 94.135029 -0.000000 -0.000000
RightFoot -46.749730 -32.029637 23.076299
RightToeBase 23.345334 -0.000000 -0.000000
634
root 28.349696 23.409320 -24.555154 -120.537646 92.778670 -43.378040
Spine -46.867831 -2.085477 2.511239
Head -33.132044 1.306357 0.406893
LeftShoulder -13.133992 -60.379538 46.480202
LeftArm 29.851561 -51.835284 0.979171
LeftForeArm -9.844511 -0.000000 34.646263
LeftHand 1.391156 -0.000000 98.932966
LeftHandThumb1 -26.253704 0.000000 33.147579
RightShoulder -7.444460 22.692161 -35.873558
RightArm 5.439643 87.665347 -13.532489
RightForeArm -33.865263 -0.000000 40.493548
RightHand 0.412108 0.000000 -98.071158
RightHandThumb1 -24.326973 -0.000000 -32.862282
LeftUpLeg 11.578452 2.731835 9.737006
LeftLeg 91.734610 -0.000000 -0.000000
LeftFoot -45.480270 26.695291 -17.919035
LeftToeBase 23.592257 -0.000000 -0.000000
RightUpLeg 10.233908 5.730244 -8.758570
RightLeg 93.424210 -0.000000 -0.000000
RightFoot -46.533581 -31.874327 22.997865
RightToeBase 23.263291 -0.000000 -0.000000
